HIERARCHY
ROOT Hips
{
	OFFSET 0.00000 0.00000 0.00000
	CHANNELS 6 Xposition Yposition Zposition Zrotation Yrotation Xrotation 
	JOINT LHipJoint
	{
		OFFSET 0 0 0
		CHANNELS 3 Zrotation Yrotation Xrotation
		JOINT LeftUpLeg
		{
			OFFSET 1.51378 -1.89840 0.47569
			CHANNELS 3 Zrotation Yrotation Xrotation
			JOINT LeftLeg
			{
				OFFSET 2.53380 -6.96157 0.00000
				CHANNELS 3 Zrotation Yrotation Xrotation
				JOINT LeftFoot
				{
					OFFSET 2.74874 -7.55212 0.00000
					CHANNELS 3 Zrotation Yrotation Xrotation
					JOINT LeftToeBase
					{
						OFFSET 0.18263 -0.50178 1.99677
						CHANNELS 3 Zrotation Yrotation Xrotation
						End Site
						{
							OFFSET 0.00000 -0.00000 1.03711
						}
					}
				}
			}
		}
	}
	JOINT RHipJoint
	{
		OFFSET 0 0 0
		CHANNELS 3 Zrotation Yrotation Xrotation
		JOINT RightUpLeg
		{
			OFFSET -1.43037 -1.89840 0.47569
			CHANNELS 3 Zrotation Yrotation Xrotation
			JOINT RightLeg
			{
				OFFSET -2.69849 -7.41406 0.00000
				CHANNELS 3 Zrotation Yrotation Xrotation
				JOINT RightFoot
				{
					OFFSET -2.69369 -7.40087 0.00000
					CHANNELS 3 Zrotation Yrotation Xrotation
					JOINT RightToeBase
					{
						OFFSET -0.28932 -0.79491 2.04975
						CHANNELS 3 Zrotation Yrotation Xrotation
						End Site
						{
							OFFSET 0.00009 0.00010 1.09536
						}
					}
				}
			}
		}
	}
	JOINT LowerBack
	{
		OFFSET 0 0 0
		CHANNELS 3 Zrotation Yrotation Xrotation
		JOINT Spine
		{
			OFFSET 0.01912 1.94784 -0.02419
			CHANNELS 3 Zrotation Yrotation Xrotation
			JOINT Spine1
			{
				OFFSET 0.07565 1.94258 0.01909
				CHANNELS 3 Zrotation Yrotation Xrotation
				JOINT Neck
				{
					OFFSET 0 0 0
					CHANNELS 3 Zrotation Yrotation Xrotation
					JOINT Neck1
					{
						OFFSET -0.07010 1.86195 0.18976
						CHANNELS 3 Zrotation Yrotation Xrotation
						JOINT Head
						{
							OFFSET 0.02284 1.86595 -0.31497
							CHANNELS 3 Zrotation Yrotation Xrotation
							End Site
							{
								OFFSET 0.01200 1.90122 -0.12838
							}
						}
					}
				}
				JOINT LeftShoulder
				{
					OFFSET 0 0 0
					CHANNELS 3 Zrotation Yrotation Xrotation
					JOINT LeftArm
					{
						OFFSET 3.39189 0.96331 -0.10437
						CHANNELS 3 Zrotation Yrotation Xrotation
						JOINT LeftForeArm
						{
							OFFSET 5.14845 -0.00000 0.00000
							CHANNELS 3 Zrotation Yrotation Xrotation
							JOINT LeftHand
							{
								OFFSET 3.43674 -0.00000 -0.00000
								CHANNELS 3 Zrotation Yrotation Xrotation
								JOINT LeftFingerBase
								{
									OFFSET 0 0 0
									CHANNELS 3 Zrotation Yrotation Xrotation
									JOINT LeftHandIndex1
									{
										OFFSET 0.58871 -0.00000 0.00000
										CHANNELS 3 Zrotation Yrotation Xrotation
										End Site
										{
											OFFSET 0.47463 -0.00000 0.00000
										}
									}
								}
								JOINT LThumb
								{
									OFFSET 0 0 0
									CHANNELS 3 Zrotation Yrotation Xrotation
									End Site
									{
										OFFSET 0.48188 -0.00000 0.48188
									}
								}
							}
						}
					}
				}
				JOINT RightShoulder
				{
					OFFSET 0 0 0
					CHANNELS 3 Zrotation Yrotation Xrotation
					JOINT RightArm
					{
						OFFSET -3.34934 1.18831 -0.19928
						CHANNELS 3 Zrotation Yrotation Xrotation
						JOINT RightForeArm
						{
							OFFSET -5.42185 -0.00000 0.00000
							CHANNELS 3 Zrotation Yrotation Xrotation
							JOINT RightHand
							{
								OFFSET -3.51317 -0.00000 -0.00000
								CHANNELS 3 Zrotation Yrotation Xrotation
								JOINT RightFingerBase
								{
									OFFSET 0 0 0
									CHANNELS 3 Zrotation Yrotation Xrotation
									JOINT RightHandIndex1
									{
										OFFSET -0.66319 -0.00000 0.00000
										CHANNELS 3 Zrotation Yrotation Xrotation
										End Site
										{
											OFFSET -0.53468 -0.00000 0.00000
										}
									}
								}
								JOINT RThumb
								{
									OFFSET 0 0 0
									CHANNELS 3 Zrotation Yrotation Xrotation
									End Site
									{
										OFFSET -0.54284 -0.00000 0.54284
									}
								}
							}
						}
					}
				}
			}
		}
	}
}
MOTION
Frames: 6
Frame Time: .0083333
-14.2950 17.7424 -13.8301 -1.8367 35.2672 12.2480 0.0000 0.0000 0.0000 -13.5294 -10.1700 -39.1948 1.0645 6.5593 18.4163 0.7726 0.9346 -16.9695 0.6239 -5.0547 -14.0646 0.0000 0.0000 0.0000 25.9472 5.8547 -12.4487 -2.2188 -9.3076 26.7625 -2.5727 -4.6232 -32.2039 -0.1319 2.3413 -6.4500 0.8440 1.4978 2.0159 2.7439 2.0407 0.7496 2.2910 1.0247 -0.4323 -1.6357 3.8807 -13.9232 -9.5293 9.5637 29.6807 -1.8858 3.0238 12.6611 -0.0000 0.0000 0.0000 -91.5089 2.5442 16.8523 25.1879 -36.3954 -8.4011 -0.0000 0.0000 -14.3235 19.6388 26.1588 8.9405 -7.1250 0.0000 -0.0000 -11.3711 57.1589 -3.4171 -0.0000 0.0000 0.0000 89.3667 -10.9029 16.1806 -16.0826 25.6325 -3.6816 0.0000 -0.0000 -4.6274 -28.8412 12.3887 -6.7381 7.1250 -0.0000 -0.0000 -1.0964 -15.9042 -0.7541
-14.2394 17.7357 -13.7681 -1.8194 35.4828 12.2533 0.0000 0.0000 0.0000 -13.3415 -10.4567 -38.8133 0.9655 6.2561 17.5293 0.7306 1.2522 -16.6465 0.4818 -4.4513 -12.3498 0.0000 0.0000 0.0000 26.0310 5.7996 -12.0113 -2.1845 -9.2402 26.5495 -2.5173 -5.0412 -32.0786 -0.1101 2.1393 -5.8909 0.7223 1.5115 1.9865 2.7344 2.0547 0.7911 2.3507 1.0314 -0.3777 -1.8084 3.8346 -14.1658 -9.3630 9.5468 29.9371 -1.7945 2.9976 12.7994 -0.0000 0.0000 0.0000 -91.4906 2.5958 16.8758 24.9510 -36.1538 -8.2610 -0.0000 0.0000 -14.1525 19.4721 25.7744 8.7404 -7.1250 0.0000 -0.0000 -11.3533 56.7378 -3.2957 -0.0000 0.0000 0.0000 89.3783 -10.6894 16.2264 -16.0928 25.6463 -3.6860 0.0000 -0.0000 -4.7023 -28.9862 12.5203 -6.8483 7.1250 -0.0000 -0.0000 -1.1842 -15.7372 -0.8188
-14.1783 17.7251 -13.7009 -1.9521 35.7134 12.2296 0.0000 0.0000 0.0000 -13.1500 -10.5228 -38.6356 0.8801 5.9805 16.7278 0.6728 1.5781 -16.1436 0.5262 -4.6486 -12.9089 0.0000 0.0000 0.0000 26.2088 5.7297 -11.5770 -2.1402 -9.1521 26.2723 -2.5089 -5.1666 -32.0903 -0.0769 1.7890 -4.9228 0.7708 1.4809 1.8636 2.7349 2.0119 0.7896 2.3286 1.0099 -0.3072 -1.8260 3.8415 -14.2463 -9.3000 9.5729 30.0941 -1.7641 3.0054 12.8784 -0.0000 0.0000 0.0000 -91.4772 2.7547 16.7341 24.7664 -35.9643 -8.1523 -0.0000 0.0000 -14.0572 19.2326 25.3702 8.5017 -7.1250 0.0000 -0.0000 -11.4054 56.2819 -3.1847 -0.0000 0.0000 0.0000 89.3574 -10.5385 16.4583 -16.1434 25.7146 -3.7079 0.0000 -0.0000 -4.7907 -29.0011 12.5671 -6.8774 7.1250 -0.0000 -0.0000 -1.1901 -15.6825 -0.8243
-14.1159 17.7143 -13.6331 -1.9007 36.0071 12.2746 0.0000 0.0000 0.0000 -13.2778 -10.4539 -38.5010 0.8019 5.7153 15.9606 0.6027 1.9214 -15.4856 0.7112 -5.3896 -15.0231 0.0000 0.0000 0.0000 26.2162 5.7825 -11.0601 -2.0944 -9.0600 25.9833 -2.5330 -5.2781 -32.2842 -0.0346 1.2009 -3.3017 0.6860 1.4643 1.8629 2.6774 1.9888 0.7467 2.3168 0.9983 -0.3508 -1.7829 3.7676 -14.1900 -9.2820 9.4592 30.1741 -1.7847 2.9619 12.8938 -0.0000 -0.0000 0.0000 -91.4791 2.8703 16.6029 24.5249 -35.7144 -8.0109 -0.0000 0.0000 -13.7202 19.2230 25.7137 8.6029 -7.1250 0.0000 -0.0000 -11.5846 56.6245 -3.3322 -0.0000 -0.0000 0.0000 89.3840 -10.4235 16.6896 -16.1386 25.7082 -3.7059 0.0000 -0.0000 -5.0207 -29.1940 12.2914 -6.7833 7.1250 -0.0000 -0.0000 -1.3480 -15.9687 -0.9254
-14.0537 17.7036 -13.5674 -1.9199 36.3439 12.2290 0.0000 0.0000 0.0000 -13.2136 -10.6054 -38.2252 0.7299 5.4587 15.2217 0.5629 2.0712 -15.0737 0.6740 -5.2497 -14.6222 0.0000 0.0000 0.0000 26.3058 5.6056 -10.5924 -2.0486 -8.9665 25.6906 -2.5452 -5.4982 -32.4618 -0.0286 1.0926 -3.0036 0.6275 1.4606 1.9056 2.6649 1.9834 0.7560 2.3358 0.9956 -0.3665 -1.7200 3.7280 -14.0889 -9.3104 9.3879 30.1534 -1.8190 2.9401 12.8639 -0.0000 0.0000 0.0000 -91.5097 2.9295 16.6805 24.2429 -35.4200 -7.8469 -0.0000 0.0000 -13.5080 19.6037 25.6261 8.7568 -7.1250 0.0000 -0.0000 -11.1416 56.6165 -3.2003 -0.0000 0.0000 0.0000 89.4448 -10.2676 16.5113 -16.1600 25.7371 -3.7152 0.0000 -0.0000 -4.9627 -29.1215 12.2209 -6.7255 7.1250 -0.0000 -0.0000 -1.3044 -16.0576 -0.8929
-13.9875 17.6943 -13.4984 -1.9730 36.6130 12.3131 0.0000 0.0000 0.0000 -13.0700 -10.7849 -38.0626 0.6611 5.2002 14.4804 0.5329 2.1726 -14.7501 0.5688 -4.8301 -13.4246 0.0000 0.0000 0.0000 26.4173 5.4705 -10.2791 -2.0071 -8.8809 25.4234 -2.5349 -5.8200 -32.5621 -0.0321 1.1567 -3.1801 0.5508 1.4888 1.7329 2.6511 2.0163 0.7365 2.3685 1.0118 -0.2930 -1.7246 3.6669 -14.1574 -9.2268 9.2934 30.2502 -1.8008 2.9023 12.9074 -0.0000 0.0000 0.0000 -91.5194 2.9776 16.7118 23.9450 -35.1061 -7.6749 -0.0000 0.0000 -13.3548 19.2243 25.2326 8.4553 -7.1250 0.0000 -0.0000 -11.3474 56.1419 -3.1295 -0.0000 0.0000 0.0000 89.4609 -10.1670 16.5531 -16.2497 25.8580 -3.7542 0.0000 -0.0000 -4.9857 -28.3413 11.7418 -6.2639 7.1250 -0.0000 -0.0000 -0.8068 -16.6931 -0.5411
